<?xml version="1.0" standalone="no"?>
<!DOCTYPE svg PUBLIC "-//W3C//DTD SVG 20010904//EN"
 "http://www.w3.org/TR/2001/REC-SVG-20010904/DTD/svg10.dtd">
<svg version="1.0" xmlns="http://www.w3.org/2000/svg"
 width="161.000000pt" height="161.000000pt" viewBox="0 0 161.000000 161.000000"
 preserveAspectRatio="xMidYMid meet">
<metadata>
Created by potrace 1.14, written by Peter Selinger 2001-2017
</metadata>
<g transform="translate(0.000000,161.000000) scale(0.100000,-0.100000)"
fill="#000000" stroke="none">
<path d="M539 1230 c-140 -105 -261 -196 -269 -203 -8 -7 -49 -37 -90 -67 -41
-30 -77 -57 -80 -60 -3 -3 -22 -18 -43 -33 -29 -22 -37 -35 -37 -60 0 -18 4
-37 8 -43 10 -16 734 -559 755 -567 9 -3 28 -2 42 3 30 11 711 522 743 556 31
35 28 65 -10 101 -46 43 -743 563 -755 563 -5 0 -124 -86 -264 -190z m183
-198 c10 -20 29 -57 43 -82 18 -33 25 -62 26 -110 3 -86 17 -125 19 -50 1 85
10 132 31 165 10 17 29 49 41 73 l22 42 103 0 103 0 1 -27 c1 -48 8 -72 39
-130 40 -74 38 -119 -8 -263 l-38 -115 -72 -3 c-68 -3 -72 -2 -72 18 0 12 17
60 37 108 45 103 47 145 10 201 -20 30 -27 53 -27 87 0 26 -2 45 -4 43 -2 -2
-25 -100 -50 -218 -33 -152 -51 -218 -64 -227 -25 -20 -99 -17 -121 4 -13 12
-31 75 -60 215 -44 215 -60 265 -58 182 0 -40 -5 -59 -26 -90 -36 -52 -34 -90
7 -183 18 -43 37 -92 40 -109 l8 -33 -74 0 -74 0 -42 130 c-49 146 -49 168 -2
261 16 31 31 76 34 100 2 24 5 45 5 47 1 1 47 2 104 2 l102 0 17 -38z"/>
</g>
</svg>
